<?xml version="1.0" encoding="utf-8"?>
<!-- Generator: Adobe Illustrator 23.0.4, SVG Export Plug-In . SVG Version: 6.00 Build 0)  -->
<svg version="1.1" id="Layer_1" xmlns="http://www.w3.org/2000/svg" xmlns:xlink="http://www.w3.org/1999/xlink" x="0px" y="0px"
	 viewBox="0 0 489.3 189.1" style="enable-background:new 0 0 489.3 189.1;" xml:space="preserve">
<style type="text/css">
	.st0{fill:#401D6B;}
	.st1{fill:#3D3D3D;}
</style>
<path class="st0" d="M138.4,41.3c-0.5-0.5-1.4-0.5-1.9-0.5h-8.2v15.6c0,16.8,0,33.5,0,50.3v18.1c0,8.8-6.6,15.9-15.3,16.6
	c-8.4,0.7-16.1-5.5-17.4-14c-0.1-1-0.2-2-0.2-2.7c0-1.6,0-3.2,0-4.7l0,0v-4.6c0-0.8,0-1.5,0-2.3c0-0.1,0-0.2,0-0.2V85.6
	c0-0.1,0-0.2,0-0.4c0-1,0-1.9,0-2.8v-2c0-2.3,0-4.6,0-6.9l0,0c0,0,0,0,0.1,0c3.2,0,7,0.1,10.9,0c0.1,0,0.2,0,0.3,0
	c0,0.1,0,0.2,0,0.3c0,14,0,28,0,42v8.3c0,0.4,0,1,0,1.4c0.3,2.6,2.4,4.6,5,4.7c1.5,0.1,2.8-0.4,3.8-1.4c1.1-1,1.6-2.5,1.6-4.2
	c0-7,0-13.9,0-20.9V88.3c0-7.7,0-15.5,0-23.1c0-0.5-0.1-1.3-0.5-1.8c-0.5-0.5-1.2-0.5-1.8-0.5l0,0c-17.4,0-33.7,0-49.4,0
	c-0.5,0-1.3,0.1-1.9,0.5C63,64,63,64.6,63,65.3c0,14.7,0,29.4,0,44.1V124c0,0.5,0,1.2,0.1,1.8c0.3,2.4,2.4,4.3,4.8,4.4
	c2.5,0.1,4.8-1.4,5.5-3.8c0.2-0.8,0.2-1.5,0.2-2.2v-10.3c0-13.5,0-26.9,0-40.3v-0.1c0,0,0,0,0.1,0c3.5,0,7.1,0.1,11.1,0
	c0,0.4,0,1,0,1.4V75c0,0.8,0,1.5,0,2.3v1.4c0,0.5,0,1.2,0,1.8c0,0.1,0,0.3,0,0.3v27.1c0,0.1,0,0.3,0,0.4c0,5.3,0,10.7,0,16.3
	c0,4.6-1.8,8.8-5,11.9c-3.2,3.1-7.3,4.7-11.7,4.7c-9.1-0.1-16.2-7.5-16.2-16.8c0-11.3,0-22.5,0-33.8V71.2c0-4.9,0-9.9,0-14.8V40.8
	h-8.1c-0.7,0-1.3,0.1-1.9,0.5c-0.5,0.4-0.5,1.2-0.5,1.8c0,18.3,0,36.6,0,54.8v26.3c0,1.4,0.1,2.6,0.2,3.7c1.3,11,9.4,20.2,20.1,22.9
	c2.3,0.5,4.6,0.9,6.9,0.9c8.4,0,16.6-3.9,21.7-11.1c6.5,8.3,14.8,12.1,25,10.9c14-1.6,23.9-12.9,23.9-27.4c0-9.9,0-19.7,0-29.6
	c0-17.1,0-34.3,0-51.4C139.1,42.5,139,41.7,138.4,41.3z"/>
<g>
	<path class="st1" d="M162,135.5V61.8h46.7v15.8h-30.2v13.2h24v15.8h-24v13.2h30.2v15.8H162z"/>
	<path class="st1" d="M217.2,135.5v-12.3L240,97.7h-22.4V83.6h42.8v12.4l-22.7,25.5h23.6v14.1H217.2z"/>
	<path class="st1" d="M328.9,135.5l-15.7-36l-15.7,36h-15.7l-17-73.8h17.7l10.1,46.7l20.7-48l20.8,48l10.1-46.7h17.7l-17.1,73.8
		H328.9z"/>
	<path class="st1" d="M377.5,76.5c-2.6,0-4.9-1-6.9-2.9c-1.9-1.9-2.9-4.2-2.9-6.9c0-2.7,1-5,2.9-6.9c1.9-1.9,4.2-2.9,6.9-2.9
		c2.8,0,5.1,1,7,2.9c1.9,1.9,2.9,4.2,2.9,6.9c0,2.7-1,5-2.9,6.9C382.6,75.6,380.3,76.5,377.5,76.5z M369.7,135.5V83.6h15.7v51.9
		H369.7z"/>
	<path class="st1" d="M398.3,135.5V57.6H414v77.9H398.3z"/>
	<path class="st1" d="M426.9,135.5V57.6h15.7v77.9H426.9z"/>
</g>
</svg>
